<svg width="92" height="22" viewBox="0 0 92 22" fill="none" xmlns="http://www.w3.org/2000/svg">
<path fill-rule="evenodd" clip-rule="evenodd" d="M35.4542 15.7283L34.2108 21.509H31.351L36.0759 0.559006H39.4636L43.9087 21.509H41.0178L39.8055 15.7283H35.4542ZM39.4636 13.3969L38.4999 8.39181C38.2202 6.96191 37.9404 5.09787 37.7234 3.60529H37.5985C37.3814 5.12844 37.0695 7.05517 36.7908 8.39181L35.7961 13.3969H39.4636ZM54.8245 0V17.6239C54.8245 18.7746 54.8867 20.4531 54.9484 21.5095H52.431L52.2445 19.676H52.1513C51.6539 20.7324 50.5038 21.7587 48.9812 21.7587C46.1835 21.7587 44.4739 18.7119 44.4739 14.0192C44.4739 8.6726 46.7425 6.15475 49.1366 6.15475C50.3484 6.15475 51.312 6.71479 51.8404 7.8644H51.9026V0H54.8245V0ZM51.9021 12.1536C51.9021 11.8743 51.9021 11.5324 51.871 11.2205C51.7156 9.8533 50.9384 8.67208 49.8821 8.67208C48.0476 8.67208 47.4264 11.2205 47.4264 14.0186C47.4264 17.1271 48.2346 19.3025 49.7888 19.3025C50.4416 19.3025 51.3115 18.9606 51.8088 17.1582C51.871 16.9095 51.9021 16.536 51.9021 16.1951V12.1536V12.1536ZM61.7844 21.7582C58.7697 21.7582 56.5933 19.1782 56.5933 13.9881C56.5933 8.48557 59.1728 6.15423 61.9393 6.15423C64.9234 6.15423 67.0677 8.82751 67.0677 13.9254C67.0677 19.9247 64.1147 21.7582 61.8149 21.7582H61.7844ZM61.8771 19.4584C63.6795 19.4584 64.0841 16.2567 64.0841 13.957C64.0841 11.6873 63.68 8.45501 61.8155 8.45501C59.8877 8.45501 59.5152 11.6873 59.5152 13.957C59.5152 16.4743 59.9504 19.4584 61.8465 19.4584H61.8771ZM68.8292 0H71.7506V8.11256H71.8128C72.5899 6.74536 73.6468 6.15423 74.9834 6.15423C77.5629 6.15423 79.1798 9.07618 79.1798 13.7078C79.1798 19.116 76.9728 21.7582 74.4861 21.7582C72.994 21.7582 72.1547 20.9495 71.5014 19.6128H71.3781L71.2222 21.509H68.7048C68.767 20.4837 68.8292 18.7741 68.8292 17.6234V0V0ZM71.7506 16.1624C71.7506 16.5054 71.7817 16.8473 71.8749 17.0955C72.3407 18.93 73.2427 19.3025 73.8328 19.3025C75.5735 19.3025 76.2263 17.0028 76.2263 13.8943C76.2263 11.0034 75.5429 8.67208 73.8017 8.67208C72.8381 8.67208 72.0609 9.82221 71.8434 10.9102C71.7812 11.221 71.7501 11.6256 71.7501 11.936V16.1624H71.7506V16.1624ZM83.4913 14.5466C83.5223 18.4321 85.2004 19.3952 86.9722 19.3952C88.0291 19.3952 88.9305 19.1471 89.5833 18.8357L90.0185 20.9495C89.1171 21.4157 87.7493 21.6649 86.4127 21.6649C82.6209 21.6649 80.6315 18.8051 80.6315 14.1425C80.6315 9.2 82.9001 6.15372 86.0397 6.15372C89.1792 6.15372 90.6402 9.16892 90.6402 12.9618C90.6402 13.7073 90.6086 14.1741 90.578 14.5776L83.4913 14.5466V14.5466ZM87.8737 12.4644C87.9048 9.79113 86.9722 8.36175 85.8226 8.36175C84.2989 8.36175 83.6151 10.5688 83.5223 12.4644H87.8737Z" fill="#353148"/>
<path fill-rule="evenodd" clip-rule="evenodd" d="M14.8828 0.612305H23.6108V21.5063L14.8828 0.612305ZM8.73425 0.612305H0V21.5063L8.73425 0.612305ZM11.809 8.31247L17.3701 21.5063H13.7259L12.0629 17.3042H7.99236L11.809 8.31247Z" fill="#353148"/>
<path fill-rule="evenodd" clip-rule="evenodd" d="M90.3914 6.11272C90.479 6.11312 90.5656 6.13087 90.6463 6.16493C90.7269 6.19899 90.8001 6.24869 90.8614 6.31116C90.9228 6.37363 90.9712 6.44764 91.0038 6.52891C91.0364 6.61018 91.0526 6.69711 91.0514 6.78467C91.0514 7.1639 90.7587 7.45972 90.3883 7.45972C90.021 7.45972 89.722 7.16442 89.722 6.78467C89.7216 6.69677 89.7384 6.60965 89.7717 6.52828C89.8049 6.44691 89.8539 6.3729 89.9158 6.31048C89.9777 6.24807 90.0512 6.19847 90.1323 6.16454C90.2134 6.1306 90.3004 6.11299 90.3883 6.11272H90.3914ZM90.3883 6.21686C90.093 6.21686 89.8505 6.47123 89.8505 6.78467C89.8505 7.10432 90.093 7.35507 90.3914 7.35507C90.6898 7.35818 90.9286 7.10432 90.9286 6.78778C90.9286 6.47123 90.6898 6.21686 90.3914 6.21686H90.3883ZM90.2629 7.17633H90.1438V6.42616C90.2064 6.41735 90.2665 6.40802 90.3562 6.40802C90.4696 6.40802 90.5437 6.43237 90.5888 6.46501C90.6339 6.49765 90.6577 6.54843 90.6577 6.62044C90.6577 6.71887 90.5919 6.77897 90.5111 6.8028V6.8085C90.5769 6.82041 90.6219 6.88051 90.6364 6.99086C90.6546 7.10743 90.6722 7.15198 90.6846 7.17633H90.5593C90.5411 7.15198 90.5235 7.0836 90.5085 6.98516C90.4903 6.88932 90.4427 6.85357 90.3468 6.85357H90.2634V7.17633H90.2629V7.17633ZM90.2629 6.76083H90.3494C90.4479 6.76083 90.5323 6.72509 90.5323 6.63235C90.5323 6.56656 90.4841 6.50076 90.3494 6.50076C90.3111 6.50076 90.2836 6.50387 90.2629 6.50698V6.76083V6.76083ZM24.7625 0.612305C24.8501 0.612707 24.9367 0.630448 25.0174 0.664507C25.098 0.698565 25.1712 0.748265 25.2325 0.810738C25.2939 0.87321 25.3423 0.947219 25.3749 1.02849C25.4075 1.10976 25.4237 1.19669 25.4225 1.28425C25.4225 1.66348 25.1298 1.9593 24.7594 1.9593C24.3921 1.9593 24.0931 1.664 24.0931 1.28425C24.0927 1.19635 24.1095 1.10923 24.1428 1.02786C24.176 0.94649 24.225 0.872478 24.2869 0.810062C24.3488 0.747645 24.4224 0.69805 24.5034 0.664115C24.5845 0.630181 24.6715 0.612576 24.7594 0.612305H24.7625ZM24.7594 0.716436C24.4636 0.716436 24.2216 0.970812 24.2216 1.28425C24.2216 1.6039 24.4636 1.85465 24.7625 1.85465C25.0609 1.85776 25.3003 1.6039 25.3003 1.28736C25.3003 0.970814 25.0609 0.716436 24.7625 0.716436H24.7594ZM24.634 1.67592H24.5143V0.925739C24.5846 0.914088 24.6556 0.908198 24.7268 0.908126C24.8402 0.908126 24.9148 0.93144 24.9594 0.964597C25.0044 0.997236 25.0283 1.04852 25.0283 1.12002C25.0283 1.21845 24.9625 1.27855 24.8817 1.30238V1.30808C24.9475 1.31999 24.9925 1.38009 25.0076 1.49096C25.0252 1.60753 25.0433 1.65208 25.0552 1.67643H24.9298C24.9117 1.65208 24.8936 1.5837 24.8791 1.48526C24.8609 1.38942 24.8133 1.35367 24.7174 1.35367H24.634V1.67592V1.67592ZM24.634 1.26042H24.7205C24.819 1.26042 24.9029 1.22467 24.9029 1.13193C24.9029 1.06614 24.8552 1.00034 24.7205 1.00034C24.6817 1.00034 24.6547 1.00345 24.634 1.00656V1.26042V1.26042Z" fill="#353148"/>
</svg>
