<svg width="92" height="23" viewBox="0 0 92 23" fill="none" xmlns="http://www.w3.org/2000/svg">
<path d="M28.0058 9.09702C29.0549 9.09702 29.9053 8.23796 29.9053 7.17841C29.9053 6.11868 29.0549 5.2598 28.0058 5.2598C26.9567 5.2598 26.1063 6.11868 26.1063 7.17841C26.1063 8.23796 26.9567 9.09702 28.0058 9.09702V9.09702ZM90.6936 15.6523C90.4047 15.4471 90.1816 15.4131 89.9965 15.8115C86.8062 22.7889 81.4301 19.3071 81.9641 19.6135C83.1566 19.0627 86.293 16.5227 85.8189 13.0156C85.531 10.8723 83.7093 9.92156 81.7756 10.262C78.4002 10.8562 77.1585 14.5325 77.7906 17.7873C77.9013 18.3462 78.0989 18.8072 78.2964 19.2588C74.4821 22.391 72.9673 16.4549 72.7955 15.7455C72.7887 15.7076 75.7406 13.2229 76.5616 7.30225C77.4222 1.097 75.4619 -0.0328698 73.4573 0.00238216C69.7479 0.0676434 68.7455 7.89376 70.0922 14.4163C69.9794 14.4459 69.4545 14.7395 68.6111 14.7724C68.0042 12.844 65.411 11.1537 64.7323 11.8051C63.0337 13.4345 65.1442 16.62 66.6293 16.8698C65.7372 22.4181 60.1582 21.044 61.1967 14.0929C63.0135 10.6861 64.3952 5.62046 64.1487 2.5624C64.0613 1.47971 63.2686 0.0291375 61.4758 0.101088C58.0276 0.238841 57.6527 8.06712 58.0569 13.6232C58.0369 13.4863 57.845 14.2982 56.4319 14.7019C56.0977 12.8285 53.1105 10.948 52.4072 11.8521C51.0909 13.5442 53.3722 16.5612 54.4528 16.7716C53.5607 22.3198 47.9819 20.9457 49.0204 13.9945C50.8372 10.5879 52.2187 5.52229 51.9722 2.46423C51.8848 1.38137 51.0923 -0.0692064 49.2993 0.00256294C45.8511 0.140497 45.4762 7.96878 45.8805 13.5248C45.8603 13.3858 45.6639 14.2245 44.1932 14.6215C44.1439 12.1909 41.1458 11.0764 40.4256 11.8519C39.1419 13.2343 40.7195 16.0708 42.1789 16.7716C41.2868 22.3198 35.708 20.9457 36.7466 13.9945C38.5633 10.5879 39.945 5.52229 39.6983 2.46423C39.6112 1.38137 38.8184 -0.0692064 37.0255 0.00256294C33.5774 0.140497 33.3 8.36233 33.7042 13.9182C32.5685 18.832 28.7597 24.9684 29.2545 12.6759C29.3034 11.8136 29.3567 11.4862 28.931 11.1633C28.612 10.9124 27.8866 11.0332 27.49 11.0431C27.0081 11.0626 26.8872 11.3474 26.7807 11.7778C26.5326 12.8892 26.488 13.9667 26.4526 15.4368C26.4293 16.1245 26.3747 16.4453 26.1124 17.383C25.8505 18.3206 24.3562 20.0342 23.538 19.7476C22.403 19.3535 22.7754 16.1179 22.988 13.8949C23.1653 12.1381 22.5978 11.3492 21.1437 11.0623C20.2924 10.8831 19.7752 10.9106 18.8887 10.6284C18.0503 10.3616 17.8607 8.76023 16.0726 9.29389C15.0946 9.58603 15.7233 11.6785 15.4883 13.2295C14.3327 20.8585 11.9282 21.068 10.8126 17.3621C15.8367 4.93693 12.266 0.038538 10.1759 0.038538C7.99889 0.038538 5.51043 1.55274 6.56418 11.2411C6.0518 11.0901 5.89426 11.0088 5.33337 11.0088C2.1612 11.0088 0 13.5982 0 16.7926C0 19.987 2.16138 22.5766 5.33355 22.5766C7.20616 22.5766 8.52093 21.7167 9.51668 20.3863C10.1664 21.3258 10.9575 22.5911 12.4042 22.5342C16.7164 22.3646 17.9705 13.4325 18.1185 12.9342C18.5795 13.006 19.0156 13.1418 19.4414 13.2135C20.1507 13.3211 20.2022 13.6046 20.1861 14.325C19.9981 20.3999 21.1083 22.5269 23.6264 22.5269C25.0295 22.5269 26.28 21.1349 27.1414 20.1396C27.7849 21.4806 28.8102 22.4859 30.1856 22.5267C33.5185 22.6104 34.7946 17.2462 34.6783 17.9521C34.587 18.506 35.7596 22.4966 39.1908 22.511C43.4411 22.5291 44.2311 17.8093 44.3253 17.0188C44.3371 16.8615 44.3423 16.8778 44.3253 17.0188L44.3221 17.0667C45.6714 16.8132 46.3676 16.0827 46.3676 16.0827C46.3676 16.0827 47.4511 22.5844 51.4645 22.5112C55.6322 22.4349 56.4181 18.1685 56.5213 17.3366C56.5349 17.1392 56.5429 17.1623 56.5213 17.3366C56.5207 17.3447 56.5202 17.3528 56.5196 17.361C58.1225 16.7722 58.5441 16.1812 58.5441 16.1812C58.5441 16.1812 59.4052 22.5537 63.641 22.6094C67.4155 22.6593 68.8145 18.7561 68.8227 17.1224C69.4593 17.1292 70.6369 16.7409 70.6094 16.7189C70.6094 16.7189 71.992 22.2905 75.853 22.5766C77.6659 22.711 79.0258 21.5466 79.8009 21.0154C81.6227 22.5052 87.689 24.4081 91.5195 17.8503C92.0601 16.9092 90.8977 15.7974 90.6936 15.6523V15.6523ZM5.18048 20.4134C3.32971 20.4134 2.14294 18.6854 2.14294 16.8221C2.14294 14.959 3.23232 13.2309 5.08309 13.2309C5.91592 13.2309 6.37924 13.3235 7.02785 13.8931C7.14547 14.3611 7.47882 15.4407 7.64102 15.931C7.85836 16.5871 8.11687 17.1455 8.37753 17.7533C8.00516 19.3121 6.78438 20.4134 5.18048 20.4134V20.4134ZM9.69051 13.9479C9.61353 13.824 9.62964 13.9001 9.54353 13.7832C9.20427 12.8513 8.55047 10.7712 8.47474 8.40861C8.38917 5.73597 8.83029 2.60325 10.1307 2.60325C11.0119 2.60325 11.9484 8.95222 9.69033 13.9479H9.69051ZM35.7497 11.1631C35.541 9.57717 35.5301 2.5069 37.211 2.7016C38.139 3.08123 36.6225 9.75289 35.7497 11.1631ZM48.0236 11.1631C47.8149 9.57717 47.8039 2.5069 49.4848 2.7016C50.4129 3.08123 48.8964 9.75289 48.0236 11.1631ZM60.2001 11.2617C59.9911 9.67552 59.9804 2.60524 61.6611 2.79994C62.5892 3.17958 61.0726 9.85141 60.2001 11.2617ZM73.6428 2.28779C75.1796 2.1269 75.1162 8.90359 72.0316 13.1819C71.6338 11.6355 71.0238 2.81874 73.6428 2.28761V2.28779ZM80.1021 16.8698C79.6085 14.3521 80.8839 12.6985 82.1986 12.5172C82.6582 12.4431 83.3242 12.7437 83.457 13.3057C83.6754 14.3649 83.4253 15.9361 80.4827 17.9295C80.487 17.9465 80.2122 17.4306 80.1022 16.8698H80.1021Z" fill="#353148"/>
</svg>
