<svg width="103" height="30" viewBox="0 0 103 30" fill="none" xmlns="http://www.w3.org/2000/svg">
<path d="M100.73 13.5286C100.86 13.2325 100.974 12.9607 101.097 12.6931C101.151 12.5777 101.339 12.5211 101.452 12.5686C101.518 12.5952 101.498 12.6486 101.498 12.6931C101.498 13.2133 101.498 13.7335 101.501 14.252C101.501 14.3495 101.47 14.3821 101.37 14.3821C101.271 14.3821 101.24 14.3479 101.24 14.2504C101.244 13.8824 101.242 13.514 101.24 13.145C101.24 13.0881 101.253 13.0286 101.216 12.9548C101.1 13.2341 100.951 13.4828 100.863 13.7582C100.842 13.8232 100.822 13.8768 100.739 13.8837C100.656 13.8905 100.615 13.8537 100.584 13.778C100.493 13.5598 100.394 13.3446 100.295 13.1294C100.277 13.0878 100.268 13.0354 100.205 13.0114C100.171 13.0764 100.187 13.1473 100.187 13.2136C100.185 13.5543 100.183 13.8963 100.187 14.2364C100.187 14.3365 100.165 14.3821 100.052 14.3817C99.9395 14.3814 99.9352 14.32 99.9352 14.2367C99.9369 13.7387 99.9352 13.2406 99.9378 12.7428C99.9378 12.6778 99.8948 12.567 100.016 12.567C100.123 12.567 100.257 12.499 100.327 12.659C100.44 12.9191 100.562 13.1769 100.68 13.435C100.693 13.4604 100.707 13.4834 100.73 13.5286Z" fill="#353148"/>
<path d="M98.8529 13.5896C98.8529 13.3896 98.8425 13.189 98.8565 12.9901C98.8679 12.8275 98.8057 12.7787 98.6534 12.7966C98.568 12.8067 98.48 12.7943 98.3926 12.7995C98.301 12.8047 98.2554 12.7836 98.2547 12.6767C98.2547 12.5632 98.3121 12.558 98.3972 12.5586C98.793 12.5609 99.1887 12.5616 99.5845 12.5586C99.6794 12.5586 99.7221 12.5846 99.7208 12.6887C99.7195 12.7927 99.6673 12.8038 99.5858 12.8015C99.4828 12.7982 99.3791 12.808 99.2771 12.7989C99.1509 12.7872 99.1082 12.8291 99.1108 12.9598C99.1186 13.376 99.1108 13.7924 99.1147 14.2086C99.1147 14.3094 99.1167 14.3825 98.9749 14.3799C98.8331 14.3773 98.852 14.2944 98.852 14.2083C98.853 14.0015 98.8534 13.7953 98.8529 13.5896Z" fill="#353148"/>
<path d="M75.6694 17.528C75.9479 17.2861 76.2005 17.0663 76.4864 16.8901C77.3073 16.3839 78.2035 16.2278 79.1545 16.3101C79.5983 16.3446 80.0332 16.4529 80.4413 16.6303C81.0281 16.8904 81.4643 17.3131 81.8206 17.8332C81.8799 17.9194 81.9103 17.9363 81.9768 17.8372C82.5854 16.9298 83.4562 16.4327 84.5258 16.302C85.5854 16.1719 86.5712 16.379 87.3885 17.1148C87.8006 17.4864 88.0311 17.9649 88.1286 18.5092C88.1907 18.8716 88.2209 19.2387 88.2189 19.6064C88.2231 21.4699 88.2189 23.3338 88.2248 25.1983C88.2248 25.3573 88.1804 25.3934 88.0256 25.3934C87.0423 25.3862 86.059 25.3862 85.0755 25.3934C84.9327 25.3934 84.8936 25.3589 84.8942 25.2143C84.8999 23.746 84.9005 22.2778 84.8962 20.8096C84.8997 20.4579 84.8626 20.107 84.7854 19.7638C84.5011 18.5608 83.1322 18.5534 82.5219 19.1226C82.1466 19.4728 82.0221 19.9195 81.9676 20.402C81.9207 20.8122 81.939 21.2238 81.9383 21.6351C81.9364 22.8326 81.9369 24.0299 81.9399 25.2269C81.9399 25.3508 81.9125 25.394 81.7792 25.3931C80.7794 25.3876 79.7797 25.3876 78.7799 25.3931C78.6401 25.3931 78.6107 25.3498 78.611 25.2185C78.6156 23.734 78.6137 22.2496 78.614 20.7645C78.614 20.4611 78.6035 20.1588 78.5449 19.86C78.436 19.3037 78.1025 18.9565 77.5548 18.8196C76.9089 18.6594 76.2709 18.9019 75.9319 19.4312C75.7281 19.7488 75.6841 20.1139 75.6815 20.4754C75.67 22.0468 75.6677 23.6182 75.6747 25.1895C75.6747 25.358 75.629 25.394 75.4673 25.3927C74.4841 25.3849 73.5007 25.3849 72.5173 25.3927C72.3797 25.3927 72.3468 25.354 72.3471 25.2204C72.3506 22.3434 72.3506 19.4665 72.3471 16.5897C72.3471 16.4486 72.3924 16.4219 72.5225 16.4226C73.5168 16.4278 74.511 16.4278 75.5051 16.4226C75.6456 16.4226 75.6776 16.4665 75.6737 16.5975C75.6639 16.894 75.6694 17.1921 75.6694 17.528Z" fill="#353148"/>
<path d="M65.6727 24.4813C65.4683 24.6792 65.2711 24.8714 65.0484 25.0317C64.5414 25.3987 63.9677 25.5844 63.3486 25.6546C62.3901 25.7628 61.4766 25.61 60.6319 25.1507C59.2894 24.4208 58.4177 23.3235 58.1777 21.7958C57.9821 20.5438 58.1262 19.3321 58.8506 18.255C59.6288 17.1012 60.7115 16.3951 62.1065 16.1909C63.1328 16.0401 64.0991 16.2033 64.993 16.74C65.2306 16.8824 65.4318 17.0736 65.6499 17.2602C65.6903 17.1952 65.673 17.1302 65.673 17.0707C65.673 15.0719 65.6721 13.073 65.6701 11.074C65.6701 10.9092 65.7138 10.864 65.8794 10.8653C66.8734 10.8731 67.8681 10.8711 68.8614 10.8653C68.9866 10.8653 69.0277 10.8945 69.0277 11.0278C69.0242 15.7625 69.0242 20.4971 69.0277 25.2316C69.0277 25.3535 69.0039 25.3984 68.8689 25.3977C67.8587 25.3917 66.8481 25.3917 65.837 25.3977C65.7066 25.3977 65.6675 25.3568 65.6714 25.2306C65.6782 24.9806 65.6727 24.7316 65.6727 24.4813ZM63.6756 22.9207C63.7949 22.9207 63.9158 22.9331 64.0342 22.9188C65.2469 22.7712 66.0655 21.5208 65.7066 20.3462C65.287 18.9752 63.6586 18.4865 62.5313 19.2118C61.7104 19.7402 61.4812 20.4908 61.6057 21.2571C61.7586 22.2012 62.6467 22.9857 63.6756 22.9207Z" fill="#353148"/>
<path d="M18.2712 16.0959C19.4661 16.0939 20.4614 16.2542 21.3755 16.7461C22.6469 17.4328 23.5445 18.4367 23.8652 19.8721C24.3543 22.0624 23.2951 24.1762 21.2529 25.1408C20.5279 25.4832 19.7595 25.6435 18.9617 25.6984C18.1108 25.7569 17.2697 25.7101 16.4452 25.4923C14.9355 25.0937 13.7772 24.2357 13.1369 22.7939C12.4258 21.1937 12.6052 19.2388 13.932 17.8196C14.762 16.9321 15.7825 16.4308 16.9659 16.2214C17.4533 16.1375 17.9429 16.0923 18.2712 16.0959ZM18.3615 18.8268C18.1987 18.8235 18.036 18.8364 17.8758 18.8652C16.6562 19.1032 15.7283 20.5015 16.3963 21.8159C16.8469 22.7025 17.7835 23.1433 18.8196 22.958C19.9909 22.748 20.746 21.5887 20.4874 20.4332C20.3042 19.6143 19.4322 18.7859 18.3615 18.8262V18.8268Z" fill="#353148"/>
<path d="M49.6937 17.54C49.922 17.2681 50.1833 17.0254 50.4716 16.8177C50.9518 16.4769 51.4972 16.3176 52.0781 16.2591C52.8202 16.1847 53.5517 16.2126 54.2539 16.4867C55.3213 16.9051 55.9459 17.687 56.1494 18.8106C56.2048 19.1159 56.2146 19.4221 56.2146 19.7306C56.2133 21.5617 56.2142 23.3926 56.2175 25.2234C56.2175 25.3681 56.1794 25.4025 56.0369 25.4016C55.0484 25.3951 54.0595 25.3951 53.0702 25.4016C52.9052 25.4016 52.8782 25.3509 52.8785 25.201C52.8842 23.6951 52.8842 22.1892 52.8785 20.6835C52.8793 20.3702 52.8475 20.0576 52.7836 19.7508C52.6692 19.2238 52.335 18.8971 51.8232 18.7839C51.148 18.6344 50.541 18.7813 50.0667 19.3171C49.8385 19.5749 49.7618 19.8942 49.7208 20.2274C49.6732 20.6104 49.6944 20.995 49.6937 21.3786C49.6909 22.6626 49.6915 23.9465 49.6957 25.2302C49.6957 25.3642 49.6631 25.4025 49.5252 25.4019C48.5254 25.3958 47.5256 25.3958 46.5259 25.4019C46.3863 25.4019 46.3573 25.36 46.3576 25.2283C46.3611 22.3519 46.3611 19.4755 46.3576 16.5992C46.3576 16.4532 46.3977 16.421 46.5389 16.422C47.5328 16.4283 48.5268 16.4283 49.5209 16.422C49.6513 16.422 49.7006 16.449 49.6957 16.5894C49.6856 16.8928 49.6937 17.1954 49.6937 17.54Z" fill="#353148"/>
<path d="M44.212 19.5267C44.212 20.4695 44.2322 21.4123 44.2068 22.3552C44.1742 23.5734 43.631 24.5058 42.5474 25.1017C41.8924 25.4616 41.1827 25.6339 40.4449 25.7223C39.8734 25.7877 39.2975 25.8058 38.7229 25.7766C37.6699 25.7298 36.643 25.5569 35.7302 24.9811C34.8593 24.4321 34.3703 23.6443 34.2631 22.6179C34.2416 22.3754 34.2328 22.132 34.2367 21.8886C34.2367 20.1278 34.2367 18.3667 34.2328 16.6059C34.2328 16.4625 34.2625 16.4141 34.4173 16.4154C35.4116 16.423 36.406 16.423 37.4003 16.4154C37.5473 16.4154 37.592 16.4479 37.5914 16.602C37.5855 18.2545 37.5887 19.9071 37.5868 21.5596C37.5868 21.8275 37.6155 22.0879 37.7234 22.3353C37.9154 22.7759 38.276 23.0106 38.7265 23.1052C39.1334 23.1904 39.5468 23.1852 39.9458 23.0454C40.4922 22.8536 40.7791 22.4553 40.8541 21.8903C40.8867 21.6425 40.885 21.3941 40.885 21.1454C40.885 19.6281 40.887 18.1112 40.8815 16.5939C40.8815 16.4502 40.9176 16.4141 41.0611 16.4151C42.0554 16.4216 43.0498 16.4216 44.0441 16.4151C44.1771 16.4151 44.2182 16.4456 44.2172 16.5838C44.211 17.5643 44.2139 18.5452 44.2139 19.526L44.212 19.5267Z" fill="#353148"/>
<path d="M96.975 21.5014H93.6992C93.5104 21.5014 93.4948 21.5205 93.5196 21.7081C93.544 21.8899 93.5557 22.0732 93.604 22.252C93.7569 22.8171 94.0966 23.2082 94.6645 23.3828C95.1568 23.5343 95.6536 23.5645 96.1541 23.4153C96.5166 23.308 96.8018 23.0902 97.0248 22.7927C97.09 22.7069 97.1536 22.6653 97.2658 22.6656C98.2221 22.6701 99.1784 22.6701 100.135 22.6656C100.292 22.6656 100.301 22.7124 100.256 22.8434C99.7519 24.3311 98.6849 25.1842 97.1895 25.5575C96.7034 25.6781 96.2085 25.722 95.7071 25.7304C94.8386 25.7454 93.9831 25.6686 93.1671 25.3598C91.5664 24.7538 90.5525 23.6279 90.2477 21.9325C90.0153 20.6398 90.1845 19.3966 90.902 18.2678C91.451 17.4037 92.2233 16.8048 93.1971 16.4927C94.5149 16.0701 95.8567 16.0375 97.1865 16.4147C98.8322 16.8796 99.8067 18.0139 100.254 19.63C100.413 20.2038 100.436 20.7923 100.428 21.384C100.428 21.514 100.351 21.501 100.268 21.501L96.975 21.5014ZM95.4642 19.7061C96.0395 19.7061 96.6155 19.7061 97.1921 19.7061C97.2599 19.7061 97.3486 19.7253 97.316 19.6047C97.195 19.1554 96.9948 18.7558 96.6007 18.4778C96.2065 18.1999 95.7602 18.1566 95.2966 18.1748C94.449 18.2073 93.8091 18.7464 93.6278 19.5728C93.6017 19.6921 93.6337 19.7081 93.7393 19.7074C94.3131 19.7045 94.8888 19.7061 95.4642 19.7061Z" fill="#353148"/>
<path d="M27.2275 22.2163C27.2275 21.2198 27.2249 20.223 27.2304 19.2253C27.2304 19.0916 27.1978 19.0481 27.0606 19.0533C26.7672 19.0637 26.4737 19.0533 26.1803 19.0582C26.0809 19.0601 26.0499 19.0282 26.0499 18.9281C26.0532 18.1374 26.0532 17.3463 26.0499 16.5548C26.0499 16.4433 26.0894 16.4189 26.1914 16.4208C26.4793 16.4267 26.7678 16.4134 27.055 16.427C27.206 16.4339 27.234 16.3815 27.2311 16.244C27.2219 15.8487 27.2177 15.453 27.2311 15.058C27.2568 14.2335 27.396 13.4298 27.8625 12.7308C28.4836 11.8007 29.3563 11.2103 30.4514 10.9632C31.2188 10.7899 31.9749 10.8247 32.7139 11.1186C32.8531 11.1739 32.8975 11.2428 32.8958 11.3914C32.8877 12.1765 32.8922 12.9623 32.8922 13.7478C32.8922 13.9737 32.8922 13.9754 32.6966 13.8778C32.3478 13.7023 31.985 13.5969 31.5882 13.6194C31.0402 13.6502 30.6679 14.0183 30.617 14.5622C30.5635 15.135 30.5903 15.7085 30.5766 16.2814C30.5737 16.3978 30.6134 16.4267 30.7249 16.4261C31.3932 16.4212 32.0616 16.4261 32.7292 16.4208C32.8541 16.4208 32.8975 16.4495 32.8965 16.5834C32.8904 17.347 32.8904 18.1108 32.8965 18.8748C32.8965 19.0136 32.8639 19.0627 32.7155 19.0608C32.0746 19.053 31.4337 19.0565 30.7921 19.0578C30.5528 19.0578 30.5792 19.0321 30.5792 19.2792C30.5792 21.2459 30.5792 23.2123 30.5792 25.1784C30.5792 25.3988 30.5792 25.3988 30.3585 25.3988C29.37 25.3988 28.3812 25.3965 27.3918 25.4017C27.2643 25.4017 27.2265 25.3692 27.2288 25.2392C27.2298 24.2317 27.2275 23.2241 27.2275 22.2163Z" fill="#353148"/>
<path d="M102.242 2.58256C101.605 1.81887 100.105 1.63063 99.1759 2.06596C98.9803 2.15764 98.7762 2.23177 98.6005 2.35856L93.0283 6.38994C92.6316 6.73521 92.2723 7.12762 92.2159 7.63739C92.1644 8.1023 92.2159 8.48691 92.6238 8.90208C93.5464 9.83905 95.1751 9.8449 95.9517 9.37284C96.665 8.94076 101.377 5.46792 102.146 4.90191L102.345 4.70261C102.573 4.38953 102.968 3.45353 102.242 2.58256Z" fill="#353148"/>
<path d="M78.8017 8.7595C79.2102 8.34433 79.2611 7.95972 79.2096 7.49481C79.1532 6.98504 78.7939 6.59263 78.3972 6.24736L72.825 2.21598C72.6493 2.08886 72.4455 2.01474 72.2496 1.92338C71.3208 1.48806 69.8202 1.6763 69.1851 2.43998C68.4591 3.31096 68.8539 4.24663 69.0834 4.55906L69.2829 4.75835C70.0484 5.32535 74.7605 8.79819 75.4745 9.23026C76.2504 9.70134 77.8791 9.69647 78.8017 8.7595Z" fill="#353148"/>
<path d="M85.751 7.70644C86.9406 7.70644 87.9376 7.16643 88.2209 6.16379C88.2577 6.02591 88.2762 5.88382 88.276 5.74114L88.3027 2.12655C88.3027 2.09599 88.305 2.06543 88.305 2.0352C88.305 0.645671 87.1819 0 85.7716 0C84.3697 0 83.2303 0.750032 83.2189 2.12655L83.2163 5.7704C83.214 5.91242 83.2281 6.05424 83.2583 6.19304C83.5006 7.23568 84.5239 7.70644 85.751 7.70644Z" fill="#353148"/>
<path d="M93.1076 10.4226C91.2167 9.48428 88.7175 8.89453 85.4542 8.89453C79.9863 8.89453 76.3197 10.6153 74.4568 13.1164H74.4849L74.4771 13.1265L96.4828 13.1246C95.6805 12.0881 94.5779 11.1505 93.1076 10.4226Z" fill="#353148"/>
<path d="M7.5265 24.373C7.36349 24.5073 7.2308 24.6217 7.09323 24.7306C6.49663 25.2088 5.81494 25.465 5.05207 25.5323C3.96483 25.6299 2.94278 25.4407 2.01267 24.8577C0.890867 24.1568 0.263296 23.1255 0.070297 21.8296C-0.0927086 20.7444 0.0145491 19.6839 0.531603 18.7047C1.2723 17.3034 2.43257 16.4552 4.01992 16.2218C4.8519 16.0992 5.66302 16.1701 6.43795 16.5199C6.7845 16.6763 7.07562 16.9101 7.34002 17.1773C7.3912 17.2293 7.43489 17.2888 7.48216 17.3451L7.53139 17.3145C7.53139 17.0733 7.53693 16.8317 7.52878 16.5908C7.52487 16.4689 7.55356 16.4214 7.68885 16.4221C8.68862 16.4279 9.68838 16.4279 10.6882 16.4221C10.8 16.4221 10.8368 16.451 10.8368 16.5667C10.8329 19.5031 10.8414 22.4395 10.8251 25.3773C10.8212 26.0574 10.7416 26.7385 10.4195 27.3621C9.94289 28.2857 9.19861 28.9258 8.26785 29.3605C7.54182 29.6999 6.76819 29.8423 5.97045 29.8921C4.98002 29.9538 4.0059 29.8797 3.06895 29.552C1.87966 29.1372 0.945963 28.4086 0.349688 27.2837C0.240149 27.0769 0.180163 26.8526 0.134847 26.6231C0.111374 26.5047 0.130283 26.467 0.26297 26.468C1.09397 26.4745 1.92563 26.4713 2.7563 26.4713C3.07145 26.4713 3.38659 26.4713 3.70173 26.4713C3.76922 26.4713 3.82529 26.4713 3.85594 26.5538C4.05578 27.0877 4.48318 27.3282 5.01491 27.3952C5.53881 27.4602 6.05619 27.419 6.53281 27.1556C7.1392 26.8207 7.43945 26.2921 7.50205 25.6165C7.53954 25.2137 7.53139 24.8103 7.5265 24.373ZM5.55609 22.9539C6.68995 22.9831 7.68885 22.0592 7.6895 20.8784C7.6895 19.7336 6.79265 18.7729 5.56456 18.7726C4.26345 18.7726 3.45364 19.85 3.44777 20.8686C3.44125 21.9483 4.37853 22.9724 5.55609 22.9539Z" fill="#353148"/>
</svg>
