<svg width="106" height="27" viewBox="0 0 106 27" fill="none" xmlns="http://www.w3.org/2000/svg">
<path fill-rule="evenodd" clip-rule="evenodd" d="M12.9145 1.69505e-07C15.7691 1.69505e-07 18.0005 0.603222 19.235 2.01024L19.2357 2.01098C20.3573 3.28895 20.684 4.70039 20.3596 6.77405C20.3352 6.93186 20.3072 7.09336 20.2748 7.25928C19.1826 12.8697 15.4438 14.8091 10.669 14.8091H8.2384C7.95649 14.8094 7.68397 14.9104 7.46995 15.0939C7.25605 15.2773 7.11462 15.531 7.07112 15.8093L7.11086 15.5547L5.82626 23.7025H0.711431C0.608676 23.7026 0.507125 23.6804 0.413774 23.6375C0.320424 23.5945 0.237493 23.5318 0.170696 23.4538C0.103899 23.3757 0.0548227 23.2841 0.0268492 23.1852C-0.00112429 23.0863 -0.00733015 22.9825 0.00865878 22.881L3.45689 1.00069C3.50115 0.721596 3.64356 0.467457 3.85851 0.284009C4.07346 0.100561 4.34682 -0.00015081 4.62941 1.69505e-07H12.9145ZM101.516 7.47081L99.1677 22.4045C99.157 22.4726 99.1612 22.5421 99.18 22.6084C99.1988 22.6747 99.2317 22.7361 99.2765 22.7884C99.3213 22.8408 99.3768 22.8828 99.4394 22.9116C99.502 22.9404 99.57 22.9554 99.6389 22.9554H101.999C102.39 22.9554 102.724 22.6708 102.785 22.2843L105.1 7.6183C105.11 7.55023 105.106 7.48063 105.087 7.41431C105.069 7.34799 105.036 7.28652 104.991 7.23415C104.946 7.18178 104.891 7.13976 104.828 7.11097C104.765 7.08219 104.697 7.06734 104.628 7.06744H101.987C101.873 7.06715 101.763 7.1076 101.677 7.18147C101.59 7.25533 101.533 7.35772 101.516 7.47007V7.47081ZM78.4543 14.4779C79.9704 14.4779 81.5382 14.4779 81.8509 12.4249C81.9645 11.7044 81.8738 11.1823 81.5736 10.8306C81.0707 10.2428 80.0958 10.2428 79.0634 10.2428H78.6674C78.4329 10.2428 78.2338 10.4132 78.1969 10.6447L77.5915 14.4779H78.4543ZM75.4714 7.06817H81.1909L81.1916 7.06744C83.1053 7.06744 84.547 7.57331 85.3603 8.52903C86.1 9.39846 86.3456 10.6403 86.0897 12.2199C85.5218 15.834 83.3479 17.6562 79.5796 17.6562H77.77C77.3791 17.6562 77.0458 17.9416 76.9853 18.3273L76.329 22.4864C76.2862 22.7563 76.0532 22.9554 75.7796 22.9554H72.8446C72.7758 22.9553 72.7079 22.9403 72.6454 22.9114C72.5829 22.8825 72.5274 22.8405 72.4827 22.7881C72.438 22.7358 72.4052 22.6744 72.3865 22.6082C72.3677 22.542 72.3635 22.4725 72.3742 22.4045L74.6853 7.73924C74.7151 7.55217 74.8106 7.38186 74.9547 7.25887C75.0988 7.13588 75.282 7.06827 75.4714 7.06817ZM37.6604 14.4789C39.1773 14.4789 40.7451 14.4789 41.0577 12.4259C41.1713 11.7054 41.0806 11.1833 40.7797 10.8316C40.2768 10.2438 39.3019 10.2438 38.2695 10.2438H37.8735C37.639 10.2438 37.4399 10.4142 37.403 10.6457L36.7976 14.4789H37.6604ZM34.6782 7.06918H40.3977L40.3985 7.06844C42.3121 7.06844 43.7538 7.57432 44.5672 8.53003C45.3068 9.39946 45.5524 10.6413 45.2965 12.2209C44.7287 15.835 42.5547 17.658 38.7864 17.658H36.9768C36.5859 17.658 36.2526 17.9426 36.1922 18.329L35.5676 22.2853C35.5063 22.6718 35.1738 22.9564 34.7829 22.9564H32.0515C31.9826 22.9564 31.9146 22.9415 31.8521 22.9126C31.7895 22.8838 31.734 22.8418 31.6893 22.7894C31.6446 22.7371 31.6117 22.6756 31.593 22.6094C31.5743 22.5431 31.5702 22.4736 31.581 22.4055L33.8928 7.74024C33.954 7.35383 34.2874 7.06918 34.6782 7.06918ZM50.5853 20.3068C52.1701 20.3068 53.4112 19.256 53.6767 17.6911C53.7969 16.9338 53.6317 16.2465 53.2121 15.7547C52.7947 15.2665 52.1642 15.0084 51.3862 15.0084C49.8258 15.0084 48.5633 16.0924 48.317 17.644C48.1887 18.4042 48.3406 19.0878 48.7462 19.5672C49.1547 20.0509 49.7911 20.3068 50.5853 20.3068ZM54.7548 12.3595H57.4936L57.4929 12.3603C57.5618 12.3602 57.6299 12.375 57.6926 12.4038C57.7552 12.4326 57.8109 12.4746 57.8558 12.5269C57.9006 12.5793 57.9336 12.6408 57.9524 12.7071C57.9712 12.7734 57.9755 12.843 57.9648 12.9111L56.4841 22.2861C56.4229 22.6732 56.0895 22.9571 55.6987 22.9571H53.2327C53.1638 22.9572 53.0957 22.9424 53.0331 22.9136C52.9705 22.8848 52.9148 22.8428 52.87 22.7904C52.8252 22.7381 52.7923 22.6766 52.7736 22.6103C52.7549 22.544 52.7507 22.4744 52.7615 22.4063L52.8839 21.6453C52.8839 21.6453 51.5315 23.2116 49.092 23.2116C47.671 23.2116 46.4786 22.8023 45.6431 21.8193C44.7331 20.7493 44.3614 19.2162 44.6232 17.6108C45.1261 14.3956 47.7108 12.1022 50.7365 12.1022C52.0565 12.1022 53.3787 12.3905 53.9716 13.2511L54.1634 13.5283L54.2828 12.7629C54.3004 12.6504 54.3577 12.5479 54.4442 12.4739C54.5308 12.4 54.6409 12.3594 54.7548 12.3595ZM94.4718 17.6911C94.2064 19.256 92.9653 20.3068 91.3805 20.3068C90.5863 20.3068 89.9499 20.0509 89.5414 19.5672C89.1358 19.0878 88.9839 18.4042 89.1122 17.644C89.3585 16.0924 90.6202 15.0084 92.1814 15.0084C92.9594 15.0084 93.5899 15.2665 94.0073 15.7547C94.4269 16.2465 94.592 16.9338 94.4718 17.6911ZM98.2888 12.3595H95.55C95.4361 12.3594 95.326 12.4 95.2394 12.4739C95.1528 12.5479 95.0956 12.6504 95.078 12.7629L94.9585 13.5283L94.7668 13.2511C94.1739 12.3905 92.8517 12.1022 91.5317 12.1022C88.5068 12.1022 85.9221 14.3956 85.4184 17.6108C85.1566 19.2162 85.529 20.7493 86.439 21.8193C87.2745 22.8023 88.4669 23.2116 89.888 23.2116C92.3281 23.2116 93.6806 21.6453 93.6806 21.6453L93.5582 22.4063C93.5471 22.4743 93.551 22.5438 93.5696 22.6102C93.5882 22.6765 93.6209 22.738 93.6656 22.7904C93.7103 22.8428 93.7658 22.8849 93.8284 22.9136C93.891 22.9424 93.959 22.9573 94.0279 22.9571H96.4931C96.884 22.9571 97.2173 22.6732 97.2792 22.2861L98.76 12.9111C98.7707 12.843 98.7664 12.7734 98.7476 12.7071C98.7288 12.6408 98.6958 12.5793 98.6509 12.5269C98.6061 12.4746 98.5504 12.4326 98.4878 12.4038C98.4251 12.375 98.357 12.3602 98.288 12.3603L98.2888 12.3595ZM69.3268 12.3576H72.0803C72.1673 12.3576 72.2527 12.3815 72.3271 12.4266C72.4015 12.4717 72.4622 12.5363 72.5024 12.6135C72.5427 12.6906 72.5611 12.7773 72.5556 12.8641C72.5501 12.951 72.5209 13.0347 72.4712 13.1061L63.3167 26.3194C63.1677 26.5332 62.9236 26.6608 62.6641 26.6608H59.9134C59.8261 26.6607 59.7404 26.6366 59.6657 26.5912C59.5911 26.5457 59.5304 26.4806 59.4902 26.403C59.45 26.3254 59.432 26.2383 59.4379 26.1511C59.4439 26.0639 59.4737 25.98 59.5241 25.9086L62.375 21.8859L59.3441 12.9881C59.3196 12.9163 59.3126 12.8397 59.3236 12.7646C59.3347 12.6895 59.3634 12.6182 59.4076 12.5565C59.4517 12.4948 59.5099 12.4445 59.5774 12.4097C59.6448 12.375 59.7196 12.3569 59.7954 12.3568H62.5011C62.6722 12.3571 62.8387 12.4125 62.9759 12.5147C63.1131 12.617 63.2137 12.7607 63.2629 12.9247L64.8727 18.2991L68.6704 12.7064C68.8179 12.4881 69.0635 12.3576 69.3268 12.3576Z" fill="#353148"/>
<path opacity="0.6" d="M20.359 6.77579C20.3337 6.93803 20.3055 7.0998 20.2742 7.26102C19.1821 12.8707 15.4433 14.8108 10.6685 14.8108H8.23714C7.95528 14.811 7.68278 14.912 7.46884 15.0955C7.2549 15.279 7.11363 15.533 7.07052 15.8115L5.82574 23.7035L5.47177 25.9424C5.4577 26.0313 5.46306 26.1221 5.4875 26.2087C5.51194 26.2954 5.55487 26.3756 5.61333 26.444C5.67179 26.5125 5.74439 26.5674 5.82613 26.605C5.90787 26.6427 5.9968 26.6622 6.08679 26.6621H10.3986C10.9089 26.6621 11.3425 26.2904 11.4228 25.7868L11.4649 25.567L12.2775 20.4168L12.3291 20.1322C12.3678 19.8881 12.4923 19.6658 12.6802 19.5054C12.8681 19.3449 13.1071 19.2568 13.3542 19.2568H13.9994C18.1762 19.2568 21.4468 17.5607 22.4025 12.6524C22.8007 10.6023 22.5942 8.88927 21.5397 7.68652C21.2048 7.31363 20.8047 7.00499 20.359 6.77579" fill="#353148"/>
</svg>
