<svg width="91" height="17" viewBox="0 0 91 17" fill="none" xmlns="http://www.w3.org/2000/svg">
<path fill-rule="evenodd" clip-rule="evenodd" d="M70.6764 6.20041C69.9065 4.13743 69.1366 2.07444 68.369 0.00915039C67.1806 0.00915039 65.9922 0.00915039 64.7947 0C64.7926 0.0147076 64.7914 0.0294151 64.7907 0.0440334C64.7904 0.0493005 64.7902 0.0545452 64.79 0.0597676L64.7896 0.0753456L64.7896 0.0757473C64.7884 0.11342 64.7874 0.149776 64.7764 0.182829C62.9868 4.9854 61.1882 9.78795 59.3895 14.5905L59.3878 14.5949L59.3829 14.6081C59.2079 15.0682 59.0375 15.5283 58.8587 16.0113L58.8578 16.0137L58.7731 16.2424C58.7272 16.3662 58.6807 16.4917 58.6333 16.6192C58.7722 16.6192 58.91 16.6189 59.047 16.6185C59.2443 16.6179 59.4396 16.617 59.6334 16.6161H59.635C60.4393 16.6124 61.216 16.6089 61.9882 16.6283C62.3082 16.6375 62.4362 16.5095 62.5276 16.2261C62.6606 15.8383 62.7985 15.4521 62.9364 15.0655L62.9367 15.0645L62.9369 15.064C63.1305 14.5215 63.3243 13.9783 63.5057 13.4288C63.5971 13.1454 63.7342 13.0631 64.0268 13.0631C65.3086 13.0769 66.5852 13.0752 67.8645 13.0734C68.2913 13.0729 68.7183 13.0723 69.146 13.0723C69.165 13.0723 69.1841 13.0729 69.2032 13.0741C69.2122 13.0746 69.2212 13.0753 69.2303 13.076C69.2558 13.078 69.2814 13.0807 69.3069 13.0837L69.3218 13.0855L69.3472 13.0885C69.3807 13.0926 69.4142 13.0967 69.4477 13.0997C69.4855 13.2058 69.5234 13.3116 69.5613 13.4173C69.5925 13.5043 69.6238 13.5911 69.655 13.6778L69.7874 14.0447C70.0503 14.7729 70.311 15.495 70.5538 16.2169C70.6635 16.5278 70.8097 16.6375 71.1388 16.6283C71.7379 16.6087 72.3323 16.6125 72.9288 16.6162H72.9326C73.1722 16.6177 73.4121 16.6192 73.6527 16.6192H74.5303C74.5141 16.5659 74.5002 16.5179 74.4878 16.4739C74.4793 16.4438 74.4715 16.4155 74.4641 16.3887L74.4635 16.3864L74.4635 16.3862C74.4482 16.3309 74.4346 16.2816 74.4201 16.2345C74.4116 16.2068 74.4028 16.1799 74.3932 16.153C74.1601 15.5268 73.9247 14.9006 73.6893 14.2744C73.4539 13.6482 73.2185 13.022 72.9854 12.3958C72.2173 10.3292 71.4468 8.26479 70.6764 6.20041ZM67.1435 6.58547C67.5322 7.70132 67.9099 8.78546 68.2958 9.88193H64.7947C65.3797 8.24559 65.9465 6.64584 66.559 4.90896L67.1435 6.58547Z" fill="#353148"/>
<path d="M49.2223 4.02427C48.8943 4.48592 48.5628 4.95268 48.2303 5.43004C47.4627 4.34438 46.7049 3.27845 45.9472 2.21254C45.4416 1.50136 44.936 0.790169 44.4275 0.0731361C44.3086 0.265116 44.2355 0.393087 44.1624 0.521059C43.7874 1.23448 43.4114 1.94789 43.0354 2.66131L43.0336 2.66459C42.2828 4.0892 41.5319 5.51378 40.7892 6.93838C40.6703 7.17605 40.5972 7.45944 40.5972 7.71541C40.5835 9.81993 40.5852 11.9193 40.5869 14.0213C40.5875 14.7223 40.5881 15.4236 40.5881 16.1255V16.5917H44.2447V6.45388L44.7486 7.11119C45.8209 8.50986 46.8348 9.83238 47.8555 11.1617C48.1846 11.5914 48.2029 11.5914 48.532 11.1617C49.6381 9.70823 50.7442 8.26389 51.8595 6.81039C51.9414 6.71208 52.0234 6.62109 52.158 6.47164L52.2069 6.4173V16.5917H55.8177V0.100565C55.5278 0.100565 55.2403 0.105564 54.9549 0.110541H54.954C54.2948 0.122013 53.6463 0.133306 53.0022 0.0822865C52.2069 0.0182785 51.7498 0.301673 51.3201 0.969004C50.6586 2.00219 49.9494 3.00068 49.2223 4.02427Z" fill="#353148"/>
<path fill-rule="evenodd" clip-rule="evenodd" d="M0.00914149 0.118843L0.0354877 0.116969L0.0361747 0.116902C0.15394 0.108466 0.26437 0.100565 0.3748 0.100565H6.6367C7.59655 0.100565 8.53812 0.255965 9.44313 0.594195C11.893 1.52664 12.7341 3.55604 12.6609 5.83226C12.5878 8.01708 11.5457 9.57113 9.5254 10.5036C9.93067 11.18 10.3349 11.8534 10.7392 12.5269L10.7436 12.5343C11.5507 13.8787 12.3577 15.2231 13.1728 16.5917C13.1282 16.5962 13.0869 16.6007 13.048 16.6049C12.9276 16.6179 12.8308 16.6283 12.7341 16.6283C12.4531 16.6283 12.1715 16.6278 11.8897 16.6272C11.0437 16.6255 10.1951 16.6238 9.35171 16.6375C9.03176 16.6466 8.86721 16.5278 8.71181 16.2627C8.2602 15.4826 7.80176 14.7048 7.3433 13.9271L7.3432 13.9269L7.34275 13.9261L7.34031 13.922L7.33822 13.9184L7.33777 13.9177C6.87935 13.14 6.42095 12.3622 5.96937 11.5822C5.81397 11.3171 5.64942 11.2257 5.35689 11.2349C4.94765 11.2485 4.53841 11.2469 4.11018 11.2452C3.96448 11.2446 3.81657 11.244 3.66572 11.244V16.5917H0C0.00914149 11.1069 0.00914149 5.63115 0.00914149 0.118843ZM4.57944 8.07689C5.26532 8.08265 5.94187 8.08832 6.61842 8.06278C6.98407 8.04448 7.36802 7.92566 7.70625 7.77939C8.53812 7.41373 9.02262 6.49959 8.94035 5.52145C8.84893 4.43361 8.31873 3.64746 7.34973 3.50118C6.49781 3.3721 5.63678 3.3296 4.76985 3.28682C4.40885 3.26901 4.04682 3.25113 3.68401 3.22694V8.07191C3.98196 8.07191 4.27747 8.07441 4.57125 8.07689H4.57944Z" fill="#353148"/>
<path d="M77.0172 0.0998062C76.7433 0.100186 76.4662 0.100565 76.1849 0.100565C76.1943 0.117571 76.2032 0.133997 76.2118 0.149932L76.2308 0.185173C76.2462 0.214164 76.2606 0.241414 76.2743 0.267236C76.3249 0.36327 76.3652 0.439576 76.4134 0.511931C77.8944 2.98012 79.3753 5.43917 80.8745 7.88908C81.0025 8.10847 81.039 8.26387 80.8928 8.50156C79.7866 10.2841 78.6897 12.0759 77.6018 13.8676C77.364 14.2586 77.1262 14.6514 76.8844 15.0507L76.8809 15.0564C76.5756 15.5608 76.2639 16.0755 75.9381 16.61C76.2851 16.61 76.6267 16.6106 76.9645 16.6112C77.9616 16.6129 78.9244 16.6146 79.8872 16.6009C80.006 16.6009 80.1614 16.4363 80.2346 16.3084C80.5359 15.8087 80.8194 15.2972 81.1042 14.7834L81.1047 14.7825C81.1741 14.6574 81.2435 14.5322 81.3133 14.4069C81.9258 13.3283 82.5382 12.2496 83.1781 11.116C83.2258 11.1984 83.2674 11.2644 83.3047 11.3236C83.346 11.3892 83.3822 11.4466 83.4158 11.5091C83.7669 12.1417 84.1208 12.7743 84.4748 13.407C85.0057 14.3558 85.5366 15.3047 86.0577 16.2535C86.2131 16.5278 86.3776 16.6466 86.6976 16.6375C87.3699 16.6237 88.0474 16.6254 88.7223 16.6272C88.862 16.6275 89.0017 16.6279 89.1411 16.6281C89.2256 16.6282 89.31 16.6283 89.3943 16.6283H90.5004C90.4502 16.5422 90.4071 16.4674 90.3682 16.4L90.3657 16.3957C90.3065 16.2932 90.2572 16.2077 90.2079 16.1255C89.4299 14.8533 88.652 13.5788 87.874 12.3043C87.0979 11.0329 86.3218 9.76152 85.5458 8.49241C85.4178 8.27302 85.3812 8.11762 85.5275 7.87993C86.4215 6.43618 87.3108 4.98765 88.1987 3.54127L88.2755 3.41626C88.5876 2.90788 88.8995 2.39979 89.2115 1.89228C89.2955 1.75292 89.3801 1.61357 89.4655 1.47332C89.5356 1.35825 89.6062 1.24256 89.6774 1.12574C89.8783 0.796575 90.0845 0.458591 90.2993 0.100565C89.9682 0.100565 89.6429 0.101145 89.3221 0.101726C88.3767 0.103444 87.4706 0.105073 86.5696 0.0914146C86.2588 0.0822642 86.1125 0.201108 85.9754 0.457073C85.3816 1.5534 84.7695 2.64058 84.1574 3.72778L84.1573 3.72798L84.1563 3.72972C84.0325 3.94627 83.9104 4.16117 83.7865 4.37929C83.6174 4.67681 83.445 4.98029 83.2604 5.30205C82.9728 4.78099 82.6906 4.26703 82.4111 3.75822C81.7935 2.63348 81.1896 1.53396 80.5728 0.438795C80.4905 0.292522 80.3077 0.118843 80.1614 0.118843C79.1261 0.0969718 78.0966 0.0983555 77.0172 0.0998062Z" fill="#353148"/>
<path d="M16.6283 16.6283V0.137122H27.7535V3.30008H20.3123V6.67327H26.8942V9.89105H20.3306V13.4197H25.2396C25.0977 13.6941 24.9538 13.9571 24.8131 14.2142L24.8127 14.2148C24.5363 14.7198 24.2723 15.2024 24.0603 15.705C23.7495 16.4638 23.2833 16.6832 22.4788 16.6466C21.2443 16.5954 20.0098 16.6069 18.7722 16.6184L18.7668 16.6185C18.2374 16.6234 17.7075 16.6283 17.1768 16.6283H16.6283Z" fill="#353148"/>
<path d="M28.8504 13.7122C28.3568 14.6538 27.8632 15.5953 27.3238 16.6192C27.6874 16.6192 28.0451 16.6186 28.3983 16.618C29.4393 16.6163 30.4409 16.6147 31.4375 16.6283C31.7483 16.6375 31.8945 16.5186 32.0317 16.2627L32.0422 16.2427C34.7811 11.0478 37.5201 5.85301 40.2681 0.658203C40.3276 0.551121 40.3755 0.440178 40.4294 0.315287C40.4583 0.248243 40.489 0.177205 40.5241 0.100565H37.5348C37.3945 0.100565 37.2458 0.0882901 37.0964 0.0759705C36.7299 0.0457519 36.3594 0.0151986 36.0996 0.164573C35.8538 0.309551 35.7122 0.632783 35.5701 0.957398C35.5062 1.10349 35.4421 1.24985 35.3683 1.38037C35.35 1.41083 35.3307 1.4413 35.3114 1.47176C35.2728 1.53271 35.2342 1.59366 35.2038 1.65461C33.0921 5.67686 30.9713 9.6991 28.8504 13.7122Z" fill="#353148"/>
</svg>
