<svg width="150" height="21" viewBox="0 0 150 21" fill="none" xmlns="http://www.w3.org/2000/svg">
<path d="M53.7709 9.97526C53.7709 6.98343 51.6101 4.49023 48.369 4.49023C45.1278 4.49023 42.967 7.06653 42.967 9.97526C42.967 12.884 45.1278 15.4603 48.369 15.4603C49.6987 15.4603 50.8622 15.0448 51.6932 14.2968L53.106 15.5434L53.9371 14.6292L52.5243 13.4657C53.2722 12.6347 53.7709 11.305 53.7709 9.97526ZM51.6101 12.8009L49.6156 11.0556L48.7845 11.9698L50.779 13.6319C50.1142 14.1306 49.2831 14.463 48.369 14.463C45.9589 14.463 44.2136 12.4685 44.2136 10.0584C44.2136 7.64828 45.9589 5.73683 48.369 5.73683C50.779 5.73683 52.5243 7.73138 52.5243 10.1415C52.5243 11.0556 52.1919 12.0529 51.6101 12.8009Z" fill="#353148"/>
<path d="M63.7433 10.8863C63.7433 13.2133 62.4968 14.3768 60.5853 14.3768C58.5908 14.3768 57.3442 13.0471 57.3442 10.8032V4.65332H56.1807V10.8032C56.1807 13.795 58.009 15.374 60.5853 15.374C63.2447 15.374 64.9899 13.795 64.9899 10.637V4.65332H63.8265V10.8863H63.7433Z" fill="#353148"/>
<path d="M135.548 14.3818C133.221 14.3818 131.476 12.4703 131.476 9.97711C131.476 7.56703 133.221 5.65558 135.548 5.65558C136.961 5.65558 137.958 6.23732 138.873 7.1515L139.704 6.23732C138.623 5.24005 137.46 4.5752 135.548 4.5752C132.39 4.5752 130.146 7.06839 130.146 10.0602C130.146 13.1352 132.39 15.5452 135.465 15.5452C137.377 15.5452 138.623 14.7973 139.704 13.7169L138.956 12.9689C137.958 13.8 136.961 14.3818 135.548 14.3818Z" fill="#353148"/>
<path d="M143.026 14.2106V10.4708H148.843V9.39039H143.026V5.81681H149.508V4.65332H141.862V15.2909H149.591V14.2106H143.026Z" fill="#353148"/>
<path d="M114.187 4.65332H110.198V15.2909H111.362V11.5512H113.938C116.182 11.5512 118.093 10.3877 118.093 8.06068C118.176 5.98302 116.597 4.65332 114.187 4.65332ZM116.93 8.14379C116.93 9.5566 115.766 10.4708 114.021 10.4708H111.362V5.81681H114.021C115.849 5.81681 116.93 6.56477 116.93 8.14379Z" fill="#353148"/>
<path d="M37.4824 9.39351C35.1554 8.89488 34.5736 8.31313 34.5736 7.31585C34.5736 6.40168 35.4878 5.57062 36.8175 5.57062C37.8979 5.57062 38.8952 5.90304 39.8925 6.73411L40.6404 5.81994C39.56 4.98887 38.4797 4.49023 36.9006 4.49023C34.9061 4.49023 33.4102 5.73683 33.4102 7.39896C33.4102 9.14419 34.4905 9.89215 36.9837 10.4739C39.2276 10.9725 39.7262 11.4712 39.7262 12.4685C39.7262 13.5488 38.8121 14.2968 37.3993 14.2968C35.9034 14.2968 34.9061 13.7982 33.7426 12.8009L32.9946 13.715C34.2412 14.8785 35.654 15.3772 37.3162 15.3772C39.3938 15.3772 40.9728 14.2137 40.9728 12.3853C40.9728 10.8063 39.8925 9.97526 37.4824 9.39351Z" fill="#353148"/>
<path d="M91.5817 10.4708H97.316V9.39039H91.5817V5.81681H98.064V4.65332H90.3351V15.2909H98.064V14.2106H91.5817V10.4708Z" fill="#353148"/>
<path d="M104.299 9.39351C101.972 8.89488 101.39 8.31313 101.39 7.31585C101.39 6.40168 102.304 5.57062 103.634 5.57062C104.714 5.57062 105.711 5.90304 106.709 6.73411L107.373 5.81994C106.293 4.98887 105.213 4.49023 103.634 4.49023C101.639 4.49023 100.143 5.73683 100.143 7.39896C100.143 9.14419 101.307 9.89215 103.717 10.4739C105.961 10.9725 106.459 11.4712 106.459 12.4685C106.459 13.5488 105.545 14.2968 104.132 14.2968C102.636 14.2968 101.639 13.7982 100.476 12.8009L99.7277 13.715C100.974 14.8785 102.387 15.3772 104.049 15.3772C106.127 15.3772 107.706 14.2137 107.706 12.3853C107.789 10.8063 106.709 9.97526 104.299 9.39351Z" fill="#353148"/>
<path d="M71.3041 4.65332L66.4839 15.2909H67.7305L68.9771 12.4653H74.7945L76.0411 15.2909H77.2877L72.4675 4.65332H71.3041ZM69.4757 11.468L71.8858 6.06613L74.2959 11.468H69.4757Z" fill="#353148"/>
<path d="M123.247 4.65332L118.427 15.374H119.674L120.92 12.5484H126.738L127.984 15.374H129.314L124.494 4.65332H123.247ZM121.336 11.468L123.746 6.06613L126.156 11.468H121.336Z" fill="#353148"/>
<path d="M87.7603 7.89447C87.7603 7.06341 87.4279 6.31545 86.9293 5.7337C86.2644 5.06885 85.184 4.65332 83.9374 4.65332H79.3666V15.2909H80.6132V11.1356H83.6881L86.7631 15.2909H88.259L85.0178 10.9694C86.5968 10.637 87.7603 9.63971 87.7603 7.89447ZM80.6132 10.1383V5.81681H83.8543C85.5996 5.81681 86.5968 6.56477 86.5968 7.89447C86.5968 9.22417 85.4333 10.0552 83.8543 10.0552H80.6132V10.1383Z" fill="#353148"/>
<path d="M17.536 6.81135L9.47469 14.8727C8.97605 15.3713 8.97605 16.2024 9.47469 16.6179C9.97333 17.1165 10.8044 17.1165 11.2199 16.6179L19.2812 8.55658C20.2785 7.5593 21.8575 7.5593 22.8548 8.55658C23.8521 9.55386 23.8521 11.1329 22.8548 12.1302L14.9597 20.0253C15.957 21.0225 17.536 21.0225 18.5333 20.0253L24.6001 13.9585C26.5946 11.9639 26.5946 8.8059 24.6001 6.81135C22.6886 4.81679 19.5306 4.81679 17.536 6.81135Z" fill="#353148"/>
<path d="M9.47413 0H9.14171C8.55996 0 7.97822 0.249319 7.47958 0.747958L1.49592 6.81473C0.498639 7.812 0 9.14171 0 10.3883C0 11.718 0.498639 12.9646 1.49592 13.9619C3.49047 15.9564 6.64851 15.9564 8.64307 13.9619L16.6213 5.90056C17.1199 5.40192 17.1199 4.57085 16.6213 4.15532C16.1226 3.65668 15.2916 3.65668 14.8761 4.15532L6.81473 12.2166C5.81745 13.2139 4.23843 13.2139 3.24115 12.2166C2.24387 11.2194 2.24387 9.64035 3.24115 8.64307L11.1363 0.747958C10.7207 0.249319 10.139 0 9.47413 0Z" fill="#353148"/>
<path d="M16.0401 0H15.5414C14.2948 0.0831064 13.1313 0.581745 12.2172 1.49592L4.15584 9.47413C3.6572 9.97277 3.6572 10.8038 4.15584 11.3025C4.65448 11.8011 5.48554 11.8011 5.90107 11.3025L13.9624 3.24115C14.9597 2.24387 16.5387 2.24387 17.536 3.24115C18.0346 3.73979 18.8657 3.73979 19.2812 3.24115C19.7798 2.74251 19.7798 1.91145 19.2812 1.49592C18.4501 0.581745 17.2035 0.0831064 16.0401 0Z" fill="#353148"/>
<path d="M22.0243 9.47456C21.5256 8.97593 20.6945 8.97593 20.279 9.47456L12.2177 17.5359C11.2204 18.5332 9.64139 18.5332 8.64412 17.5359C8.14548 17.0373 7.31441 17.0373 6.89888 17.5359C6.40024 18.0345 6.40024 18.8656 6.89888 19.2811C7.89616 20.2784 9.14275 20.777 10.3894 20.777H10.4725C11.7191 20.777 13.0488 20.2784 13.9629 19.2811L22.0243 11.2198C22.5229 10.8043 22.5229 9.9732 22.0243 9.47456Z" fill="#353148"/>
</svg>
